HIERARCHY
ROOT Hips
{
	OFFSET -0.001795 -0.223333 0.028219
	CHANNELS 6 Xposition Yposition Zposition Zrotation Yrotation Xrotation 
	JOINT LeftUpLeg
	{
		OFFSET 0.069520 -0.091406 -0.006815
		CHANNELS 3 Zrotation Yrotation Xrotation
		JOINT LeftLeg
		{
			OFFSET 0.034277 -0.375199 -0.004496
			CHANNELS 3 Zrotation Yrotation Xrotation
			JOINT LeftFoot
			{
				OFFSET -0.013596 -0.397961 -0.043693
				CHANNELS 3 Zrotation Yrotation Xrotation
				JOINT LeftToe
				{
					OFFSET 0.026358 -0.055791 0.119288
					CHANNELS 3 Zrotation Yrotation Xrotation
					End Site
					{
						OFFSET 0.000000 0.000000 0.000000
					}
				}
			}
		}
	}
	JOINT RightUpLeg
	{
		OFFSET -0.067670 -0.090522 -0.004320
		CHANNELS 3 Zrotation Yrotation Xrotation
		JOINT RightLeg
		{
			OFFSET -0.038290 -0.382569 -0.008850
			CHANNELS 3 Zrotation Yrotation Xrotation
			JOINT RightFoot
			{
				OFFSET 0.015774 -0.398415 -0.042312
				CHANNELS 3 Zrotation Yrotation Xrotation
				JOINT RightToe
				{
					OFFSET -0.025372 -0.048144 0.123348
					CHANNELS 3 Zrotation Yrotation Xrotation
					End Site
					{
						OFFSET 0.000000 0.000000 0.000000
					}
				}
			}
		}
	}
	JOINT Spine
	{
		OFFSET -0.002533 0.108963 -0.026696
		CHANNELS 3 Zrotation Yrotation Xrotation
		JOINT Spine1
		{
			OFFSET 0.005487 0.135180 0.001092
			CHANNELS 3 Zrotation Yrotation Xrotation
			JOINT Spine2
			{
				OFFSET 0.001457 0.052922 0.025425
				CHANNELS 3 Zrotation Yrotation Xrotation
				JOINT Neck
				{
					OFFSET -0.002778 0.213870 -0.042857
					CHANNELS 3 Zrotation Yrotation Xrotation
					JOINT Head
					{
						OFFSET 0.005152 0.064970 0.051349
						CHANNELS 3 Zrotation Yrotation Xrotation
						End Site
						{
							OFFSET 0.000000 0.000000 0.000000
						}
					}
				}
				JOINT LeftShoulder
				{
					OFFSET 0.078845 0.121749 -0.034090
					CHANNELS 3 Zrotation Yrotation Xrotation
					JOINT LeftArm
					{
						OFFSET 0.090977 0.030469 -0.008868
						CHANNELS 3 Zrotation Yrotation Xrotation
						JOINT LeftForeArm
						{
							OFFSET 0.259612 -0.012772 -0.027456
							CHANNELS 3 Zrotation Yrotation Xrotation
							JOINT LeftHand
							{
								OFFSET 0.249234 0.008986 -0.001171
								CHANNELS 3 Zrotation Yrotation Xrotation
								End Site
								{
									OFFSET 0.000000 0.000000 0.000000
								}
							}
						}
					}
				}
				JOINT RightShoulder
				{
					OFFSET -0.081759 0.118833 -0.038615
					CHANNELS 3 Zrotation Yrotation Xrotation
					JOINT RightArm
					{
						OFFSET -0.096012 0.032551 -0.009143
						CHANNELS 3 Zrotation Yrotation Xrotation
						JOINT RightForeArm
						{
							OFFSET -0.253742 -0.013329 -0.021401
							CHANNELS 3 Zrotation Yrotation Xrotation
							JOINT RightHand
							{
								OFFSET -0.255298 0.007772 -0.005559
								CHANNELS 3 Zrotation Yrotation Xrotation
								End Site
								{
									OFFSET 0.000000 0.000000 0.000000
								}
							}
						}
					}
				}
			}
		}
	}
}
MOTION
Frames: 16
Frame Time: 0.050000
0.000000 0.938974 0.000000 -2.915569 -1.128889 1.825911 -3.012206 0.019587 -0.230782 -0.101189 -0.000872 0.370854 2.443084 6.459231 4.071802 0.000000 0.000000 0.000000 -2.905373 1.705520 -21.041838 4.428362 -0.361100 28.256954 -4.607330 -11.417322 -0.639780 0.000000 0.000000 0.000000 -1.068822 -0.161448 5.583200 1.768483 -0.681165 -3.789281 0.599176 -2.765585 11.568244 2.081360 -0.199591 -21.434406 0.000000 0.000000 0.000000 -26.898714 0.389256 -1.376364 -45.389181 -8.007546 -3.500598 -0.239786 -25.891258 1.368663 0.000000 0.000000 0.000000 23.671379 5.431109 0.016024 53.352651 9.124847 -1.548722 -5.501833 25.973072 -0.375372 0.000000 0.000000 0.000000 
-0.003970 0.937793 0.020300 -3.489850 -1.325130 2.059125 -2.163285 0.221050 1.687260 -0.083049 0.042579 -1.012588 2.563310 6.502477 3.447179 0.000000 0.000000 0.000000 -2.255618 1.903715 -22.047976 3.004957 0.085347 23.833927 -4.948153 -12.575354 0.825161 0.000000 0.000000 0.000000 -1.158161 -0.138658 5.042983 2.444930 -1.028720 -2.750672 0.149510 -3.152318 10.678368 3.297833 -0.948960 -21.017751 0.000000 0.000000 0.000000 -25.957038 1.086194 -1.656795 -47.087232 -8.542287 -3.323734 2.242754 -26.494880 0.874847 0.000000 0.000000 0.000000 23.704190 5.273413 -0.255890 54.357960 7.555177 -2.149037 -4.970129 26.242518 -0.306525 0.000000 0.000000 0.000000 
-0.008803 0.937703 0.039954 -3.442658 -1.495674 2.026308 -2.438088 0.350271 2.750413 0.824033 -0.071580 -0.490326 2.725289 6.767638 3.286523 0.000000 0.000000 0.000000 -1.789207 2.057230 -22.809902 1.302429 0.506090 20.038600 -2.973748 -8.762844 3.851548 0.000000 0.000000 0.000000 -0.753284 -0.162565 5.037017 1.962899 -0.818631 -2.651588 0.469493 -3.079660 10.190713 2.061566 -0.272004 -20.684545 0.000000 0.000000 0.000000 -27.363321 -0.587265 -0.687326 -45.784007 -9.422293 -2.923159 4.002442 -25.300123 0.412614 0.000000 0.000000 0.000000 23.611349 4.445141 -0.763879 54.882153 5.407412 -3.110792 -6.721794 25.220911 -0.655740 0.000000 0.000000 0.000000 
-0.014891 0.938034 0.058347 -3.499629 -0.498610 1.555657 -2.078018 0.520525 4.453430 1.343522 -0.121647 -0.559775 2.280094 5.936851 3.323485 0.000000 0.000000 0.000000 -1.669044 2.017299 -22.625345 1.335385 0.408020 18.810206 -3.015111 -9.141902 5.120689 0.000000 0.000000 0.000000 -0.372915 -0.187371 5.033192 1.432865 -0.589996 -2.281141 0.188785 -4.239141 10.339246 2.930358 -0.935569 -19.618553 0.000000 0.000000 0.000000 -27.207257 -0.597501 -0.455850 -45.055396 -10.446083 -2.609062 3.409895 -26.717578 0.608211 0.000000 0.000000 0.000000 25.621750 3.770471 -1.614851 54.140007 4.132643 -3.539008 -7.473014 25.074366 -0.840410 0.000000 0.000000 0.000000 
-0.021292 0.939098 0.075022 -3.485105 0.345797 1.299078 -1.162110 0.615159 5.938917 0.808828 -0.050500 -0.897549 1.719696 5.062908 3.889118 0.000000 0.000000 0.000000 -1.416728 1.968481 -21.982669 1.524361 0.273903 17.083555 -2.065540 -7.376564 6.408260 0.000000 0.000000 0.000000 -0.504031 -0.194325 5.375724 1.334457 -0.537421 -2.352245 0.316462 -4.738393 10.383643 2.820581 -0.897773 -19.475476 0.000000 0.000000 0.000000 -27.093368 -1.241620 -0.006416 -44.680352 -12.303366 -1.960673 3.452209 -26.919703 0.603377 0.000000 0.000000 0.000000 25.369071 3.205475 -1.941310 54.321679 3.270175 -3.955470 -7.739304 23.822429 -0.840363 0.000000 0.000000 0.000000 
-0.028016 0.941140 0.090435 -3.521340 1.280292 1.083870 -0.884604 0.675732 6.847519 1.602698 -0.145125 -0.534214 1.203272 4.416026 4.743096 0.000000 0.000000 0.000000 -1.550843 1.952015 -22.503601 2.505367 -0.017297 17.473284 -1.831798 -6.705478 6.105652 0.000000 0.000000 0.000000 -0.969582 -0.201843 6.311401 1.544980 -0.547238 -4.064694 0.870450 -6.530196 12.352491 3.327900 -1.210416 -22.017629 0.000000 0.000000 0.000000 -27.464617 -0.964401 0.407849 -43.657353 -13.760370 -1.788106 3.986284 -29.583252 0.666574 0.000000 0.000000 0.000000 24.481793 3.422120 -2.110089 54.443388 3.772182 -3.844926 -8.330685 23.798964 -1.009451 0.000000 0.000000 0.000000 
-0.035084 0.941531 0.106462 -3.642260 1.239164 1.791522 -0.528559 0.700639 7.398486 2.086089 -0.165151 -1.086581 1.138145 4.542612 5.452225 0.000000 0.000000 0.000000 -1.742148 2.100114 -24.671635 3.287044 -0.234342 15.347162 -2.101857 -7.937384 8.467015 0.000000 0.000000 0.000000 -0.458966 -0.205359 5.549953 2.123521 -0.871137 -2.680122 0.656755 -6.446668 10.881761 2.875089 -1.004133 -20.679186 0.000000 0.000000 0.000000 -25.356225 -1.093354 0.428528 -45.443289 -14.297199 -1.372481 3.559452 -31.362360 0.851135 0.000000 0.000000 0.000000 22.875060 2.749713 -2.276435 54.690082 4.021196 -3.674755 -8.614358 23.864171 -1.091502 0.000000 0.000000 0.000000 
-0.043085 0.940295 0.125146 -3.058141 1.400052 2.776454 -0.666915 0.748535 7.767315 2.273986 -0.156537 -1.558068 0.963058 4.428310 6.035494 0.000000 0.000000 0.000000 -2.178959 2.091014 -25.703179 3.561897 -0.317071 11.927526 -3.094375 -10.747498 12.478678 0.000000 0.000000 0.000000 -0.572785 -0.194255 5.499054 2.559142 -1.017166 -3.470899 0.940753 -6.505260 11.520901 3.100753 -1.112690 -21.164794 0.000000 0.000000 0.000000 -25.399060 -1.433286 0.686449 -45.864831 -14.625140 -1.299438 3.999373 -33.761037 0.845404 0.000000 0.000000 0.000000 21.796670 2.779203 -2.074496 53.897478 5.212723 -3.186255 -10.652556 24.281778 -1.516394 0.000000 0.000000 0.000000 
-0.052418 0.937419 0.148291 -2.472077 1.833860 2.775511 -0.501813 0.868437 9.291801 2.294279 -0.150572 -1.676558 0.697761 4.065099 6.312021 0.000000 0.000000 0.000000 -2.175517 1.995234 -24.763410 3.056158 -0.237137 9.618887 -5.464702 -15.490508 17.965523 0.000000 0.000000 0.000000 0.066747 -0.238576 5.541716 2.890577 -1.191111 -2.967891 0.305021 -6.281052 10.765729 3.676269 -1.449213 -20.020375 0.000000 0.000000 0.000000 -24.308502 -1.172456 0.310976 -46.931316 -14.519511 -1.147583 4.432338 -34.477578 0.701022 0.000000 0.000000 0.000000 21.909641 2.724996 -1.979778 52.692612 7.290826 -2.160459 -14.748346 23.628707 -2.246362 0.000000 0.000000 0.000000 
-0.063285 0.934884 0.175995 -1.940541 2.624678 2.626588 -0.032739 0.907568 10.477475 2.317152 -0.251533 0.179246 0.265318 2.990820 5.479499 0.000000 0.000000 0.000000 -2.469994 1.872361 -24.442741 3.172316 -0.270114 10.641530 -8.679944 -20.387567 22.897992 0.000000 0.000000 0.000000 0.816132 -0.303871 5.838147 2.635857 -1.107012 -2.400050 0.734486 -6.247382 9.593770 4.162897 -1.853177 -18.048790 0.000000 0.000000 0.000000 -24.842574 -1.218030 0.157632 -46.245328 -12.681148 -1.730707 3.089724 -35.804380 1.087975 0.000000 0.000000 0.000000 21.951908 2.778542 -1.876367 50.338545 8.206188 -1.601456 -16.167514 23.058309 -2.451639 0.000000 0.000000 0.000000 
-0.074810 0.934602 0.206444 -1.316884 3.574105 3.077676 0.562696 0.772145 9.852981 2.129577 -0.455618 4.262408 -0.366905 1.895091 5.551331 0.000000 0.000000 0.000000 -2.733736 1.701906 -23.286170 3.456735 -0.350859 11.076174 -12.497796 -25.423960 24.884674 0.000000 0.000000 0.000000 1.138805 -0.296498 5.230900 3.299417 -1.439646 -1.870913 1.125381 -5.365388 8.506829 4.215820 -1.704179 -18.033155 0.000000 0.000000 0.000000 -23.929983 0.471742 -1.319703 -46.889785 -10.660936 -2.235062 0.623990 -36.383101 1.769067 0.000000 0.000000 0.000000 22.212401 2.207793 -1.861155 47.602645 10.141308 -0.781277 -18.282549 22.770645 -2.734149 0.000000 0.000000 0.000000 
-0.085603 0.938194 0.235375 -0.830129 4.105557 3.659791 1.002318 0.483706 6.708314 1.948363 -0.908005 12.194694 -0.964382 1.531178 7.154748 0.000000 0.000000 0.000000 -2.936035 1.568475 -22.011245 3.993133 -0.478731 11.087650 -12.499755 -25.540119 23.523865 0.000000 0.000000 0.000000 2.366115 -0.377260 5.132446 3.056891 -1.367369 -1.264925 2.310751 -5.052945 7.414193 3.536958 -1.359285 -16.771865 0.000000 0.000000 0.000000 -24.000288 1.728024 -2.223613 -47.072471 -8.482400 -2.931978 -0.145609 -35.641647 1.921593 0.000000 0.000000 0.000000 21.329649 3.253442 -1.096895 45.112281 12.224050 0.040924 -19.812519 20.756585 -2.704166 0.000000 0.000000 0.000000 
-0.094549 0.942115 0.260608 -0.324660 4.126914 4.241351 2.169083 0.047407 1.669301 -0.562268 -0.902272 23.423022 -0.777539 1.886824 7.245693 0.000000 0.000000 0.000000 -3.021086 1.503772 -21.112931 4.319468 -0.551584 11.351738 -12.292549 -25.411921 22.358660 0.000000 0.000000 0.000000 3.736255 -0.501937 5.423886 2.960833 -1.289623 -1.694488 2.898207 -2.384895 7.525715 3.271595 -0.910048 -16.856973 0.000000 0.000000 0.000000 -23.940651 1.432898 -2.843506 -47.803260 -5.966028 -3.702738 -1.245297 -35.028217 1.974440 0.000000 0.000000 0.000000 20.044437 3.905234 0.148796 42.678032 14.531568 0.530905 -20.129839 19.258900 -2.340926 0.000000 0.000000 0.000000 
-0.100802 0.945611 0.281613 0.610898 4.561599 4.067192 2.665248 -0.321687 -3.626646 -3.462514 -0.320009 33.092912 -0.057133 4.403293 10.432483 0.000000 0.000000 0.000000 -3.748029 1.297351 -19.832325 4.771783 -0.675271 12.059479 -12.544710 -25.817256 21.619466 0.000000 0.000000 0.000000 4.945416 -0.751493 7.246222 2.314399 -0.945594 -2.421801 3.908538 0.066998 7.606969 3.311713 -0.636413 -17.096334 0.000000 0.000000 0.000000 -25.223096 1.255021 -3.712483 -47.059720 -4.926387 -3.811932 -2.169550 -34.494321 1.984187 0.000000 0.000000 0.000000 18.674642 4.816859 1.409485 39.549211 16.507645 0.791448 -19.694311 17.767226 -1.914535 0.000000 0.000000 0.000000 
-0.104765 0.948780 0.299459 1.963362 5.276296 4.106923 1.991109 -0.665520 -8.122610 -5.788363 0.468454 36.644411 2.250108 8.166278 9.981987 0.000000 0.000000 0.000000 -4.635236 1.090734 -18.893224 4.386257 -0.621149 12.798284 -12.928441 -26.342539 21.265362 0.000000 0.000000 0.000000 5.996095 -1.049304 9.219087 1.878925 -0.685642 -3.414873 4.105525 1.998741 8.144636 5.211367 -1.456149 -17.717351 0.000000 0.000000 0.000000 -25.749489 0.696055 -4.230228 -47.747247 -2.849775 -4.459159 -2.974897 -34.356320 2.011774 0.000000 0.000000 0.000000 19.001571 6.462416 2.973284 34.904014 19.137374 0.968262 -19.825667 14.601703 -1.392453 0.000000 0.000000 0.000000 
-0.107253 0.952964 0.315253 3.488019 5.476356 4.543188 0.768766 -1.037363 -11.620439 -6.925742 0.948174 35.399038 3.377083 8.290235 3.558154 0.000000 0.000000 0.000000 -5.774324 0.890489 -18.075257 3.944413 -0.522431 12.690418 -12.975611 -26.406372 21.208904 0.000000 0.000000 0.000000 6.832665 -1.306863 10.632407 1.441151 -0.497328 -3.318517 4.352552 4.719682 8.212268 5.717468 -1.499916 -17.351155 0.000000 0.000000 0.000000 -26.472199 -0.900946 -4.405568 -47.100213 -0.847257 -4.798632 -4.541780 -34.907390 2.251183 0.000000 0.000000 0.000000 19.312624 7.857366 4.577548 29.650603 20.765599 0.652906 -20.063689 13.606653 -1.194049 0.000000 0.000000 0.000000 
